PathFileType	4	(X/Y/Z)	 s11c0202.trc
DataRate	CameraRate	NumFrames	NumMarkers	Units	OrigDataRate	OrigDataStartFrame	OrigNumFrames
200	200	4	48	mm	200	1751	2000
Frame#	Time	racr			lacr			c7			jug			rlel			rdr			llel			ldr			s2			lic			ric			lasi			rasi			rpsi			lpsi			rgt			lgt			rth1			rth2			rth3			rth4			rlfc			rmfc			rsh1			rsh2			rsh3			rsh4			rlmal			rcal			rtoe			rmt5			lth1			lth2			lth4			lth3			llfc			lmfc			llmal			lcal			lmt5			lsh1			lsh2			lsh3			lsh4			ltoe			SBIKE			LBIKE			RBIKE			
		X1	Y1	Z1	X2	Y2	Z2	X3	Y3	Z3	X4	Y4	Z4	X5	Y5	Z5	X6	Y6	Z6	X7	Y7	Z7	X8	Y8	Z8	X9	Y9	Z9	X10	Y10	Z10	X11	Y11	Z11	X12	Y12	Z12	X13	Y13	Z13	X14	Y14	Z14	X15	Y15	Z15	X16	Y16	Z16	X17	Y17	Z17	X18	Y18	Z18	X19	Y19	Z19	X20	Y20	Z20	X21	Y21	Z21	X22	Y22	Z22	X23	Y23	Z23	X24	Y24	Z24	X25	Y25	Z25	X26	Y26	Z26	X27	Y27	Z27	X28	Y28	Z28	X29	Y29	Z29	X30	Y30	Z30	X31	Y31	Z31	X32	Y32	Z32	X33	Y33	Z33	X34	Y34	Z34	X35	Y35	Z35	X36	Y36	Z36	X37	Y37	Z37	X38	Y38	Z38	X39	Y39	Z39	X40	Y40	Z40	X41	Y41	Z41	X42	Y42	Z42	X43	Y43	Z43	X44	Y44	Z44	X45	Y45	Z45	X46	Y46	Z46	X47	Y47	Z47	X48	Y48	Z48	
1751	8.7550	474.400102	1354.929622	-14.086609	530.472808	1335.378866	-320.210304	443.538247	1457.739462	-174.918974	461.590882	1276.873106	-171.212785	528.014343	1102.637162	89.017524	759.951380	971.869990	-37.747253	574.896687	1144.342323	-557.924331	796.492186	953.867472	-437.430451	-102.886223	1212.283947	-281.156481	138.044588	1214.774363	-455.778472	78.447413	1239.197078	-53.588294	163.669074	1148.132665	-427.092062	112.537518	1185.899670	-102.694816	-64.565328	1291.092760	-235.430877	-57.125672	1277.143129	-324.210787	62.350614	1120.687269	-35.710449	28.708639	1075.950101	-472.290475	199.402968	1078.866035	-35.681755	288.547911	1082.618156	-42.516324	366.151282	1042.510395	-51.409716	295.811528	1117.475750	-54.362506	475.359277	1013.134138	-65.138225	486.129745	993.330933	-199.855133	418.765909	871.114392	-56.748169	402.194488	785.194021	-70.519301	345.870403	718.769778	-73.691870	429.792542	775.639983	-97.506580	273.901416	590.384272	-86.561216	210.716364	592.302953	-135.646442	467.013763	462.605652	-132.268560	391.310045	460.429557	-64.163849	106.767300	947.724785	-484.892203	165.088638	885.656545	-480.129178	198.105210	902.011644	-477.868974	185.413414	798.496508	-469.917019	245.462759	675.018873	-440.365760	261.913293	671.349787	-312.949348	36.828866	294.055637	-413.474633	-22.860612	254.838454	-376.063418	173.085870	184.977138	-445.089104	183.820343	566.469166	-458.975308	166.600057	483.691642	-441.229946	109.277705	417.066337	-435.808590	195.426283	474.070008	-418.385316	271.083583	199.315739	-378.124447	-205.242316	953.399738	-264.158669	1.391560	82.580365	-461.147525	-15.261302	81.502530	-62.740237	
1752	8.7600	474.282518	1353.715205	-14.733554	530.610365	1333.122338	-319.575097	443.354426	1457.333261	-175.294073	460.401850	1276.137532	-170.713473	529.744652	1102.758181	88.826398	759.932543	971.867116	-37.701017	576.990018	1143.706009	-557.456002	796.227580	952.422696	-437.477606	-104.082425	1212.795535	-281.941494	137.333267	1214.849579	-455.927772	76.879337	1239.176936	-54.159030	163.078084	1147.587439	-427.740143	111.129372	1184.830068	-100.474398	-65.102583	1291.234557	-236.400287	-57.127684	1277.396266	-325.183818	60.018519	1118.811183	-36.800353	28.562407	1075.753981	-472.815981	197.259169	1075.233417	-36.766631	286.656544	1078.551283	-43.150698	363.896913	1037.190723	-51.909464	294.200411	1112.973375	-55.086324	472.984734	1005.964070	-65.760864	483.851455	985.062849	-200.368139	417.609357	861.967516	-55.935713	401.957470	775.750095	-69.818440	346.290633	708.802438	-72.808648	429.508944	766.624033	-96.994126	275.937394	579.417541	-85.706942	211.880018	578.577200	-134.394262	474.033104	461.614709	-131.407044	398.791195	455.094884	-62.681789	109.544116	948.776749	-485.313478	169.435475	888.142764	-480.554380	201.936785	905.327680	-477.858166	191.759221	801.400169	-470.811949	253.135484	678.582577	-441.479681	269.853766	675.027284	-314.265028	33.154811	304.777368	-414.038375	-27.676563	267.661078	-376.531553	165.823612	191.154850	-445.242791	187.811047	572.100406	-459.957857	168.307568	489.948295	-441.916683	109.167863	424.894047	-436.386587	196.872261	479.614946	-419.142844	264.176972	201.817274	-378.185792	-205.385197	953.409020	-263.928285	1.395873	82.576870	-461.168545	-15.270315	81.462375	-62.736776	
1753	8.7650	474.099121	1352.511335	-15.383868	530.508732	1331.200697	-319.222835	443.019798	1456.686564	-175.662168	459.180111	1275.418092	-170.463152	532.001851	1103.422870	88.735629	759.787780	971.755450	-37.593879	579.164299	1142.800073	-556.667688	795.987157	951.852799	-436.916578	-108.670166	1213.869741	-280.718227	136.463867	1215.077823	-456.110819	75.338069	1238.823618	-54.669917	162.482355	1146.994299	-428.596311	110.118861	1183.548253	-98.782712	-65.624202	1291.075666	-237.321612	-57.347408	1277.349954	-325.941502	57.845790	1116.686087	-37.799275	28.702017	1075.218896	-473.292602	195.075157	1071.085184	-37.698928	284.710134	1072.885961	-44.055358	361.630374	1031.240984	-52.313840	293.045141	1107.775497	-55.996704	470.276389	998.079938	-66.166835	481.457142	975.747591	-200.458629	416.379179	851.855347	-55.060067	401.695263	765.249108	-69.142541	346.715800	697.802856	-71.815022	429.055111	756.704467	-96.689389	277.950960	567.609237	-84.699904	212.814782	563.893384	-132.891297	480.519096	459.693245	-130.722844	406.036089	449.694046	-61.462362	112.616249	949.929647	-485.661244	174.008137	890.771974	-480.813565	206.069848	908.733639	-477.553155	198.617219	804.562730	-471.339697	260.995211	682.585549	-442.512696	278.098801	678.909378	-315.386165	30.128895	315.857008	-414.755321	-31.801583	280.862744	-376.882303	158.975985	197.694448	-445.355983	192.208562	578.053068	-460.793906	170.483268	496.869780	-442.946480	109.518427	433.150384	-436.927843	198.629874	485.254974	-419.648998	257.571082	204.676754	-378.272448	-205.358152	953.293702	-263.892140	1.383952	82.516041	-461.173618	-15.294683	81.426740	-62.720161	
1754	8.7700	473.766435	1351.510589	-16.198277	530.212001	1329.632233	-319.022292	442.469507	1456.022828	-176.229880	457.992828	1274.894014	-170.343829	533.209184	1104.040225	88.655164	759.506455	971.587226	-37.423655	580.723615	1141.712137	-555.984950	795.501338	951.985880	-436.131126	-102.028494	1211.687019	-285.210567	135.540541	1215.367687	-456.413090	74.029267	1238.193499	-55.174329	161.629015	1146.653176	-429.182632	109.836126	1181.762937	-99.555522	-65.972972	1290.785795	-238.225615	-58.204005	1277.222397	-325.687597	55.737188	1114.489763	-38.492713	29.043630	1074.986868	-473.805687	193.880714	1067.356638	-38.831769	283.317901	1067.715171	-44.814293	359.556179	1024.638796	-52.655076	292.363880	1102.169007	-57.077912	467.370601	989.318848	-66.594309	479.092394	965.631850	-200.814851	414.987691	840.644936	-54.086571	401.087323	754.049244	-68.573734	346.804351	686.101427	-70.665792	428.013031	745.961775	-96.339758	279.555580	555.122341	-83.660089	213.435264	548.904936	-130.877409	486.199873	457.617880	-129.797691	412.202753	442.920449	-60.854412	115.993855	951.167999	-485.984409	178.872193	893.538839	-480.830847	210.408450	912.330896	-476.929330	205.574507	807.929601	-471.917576	269.065481	686.860094	-443.311530	286.304487	683.382997	-316.441011	27.836942	327.287680	-415.487855	-35.227697	294.573075	-377.221441	152.530586	204.851064	-445.455888	196.833693	584.304435	-461.480177	172.959488	503.847155	-443.329785	110.339977	441.778184	-437.275117	200.840462	491.114062	-419.871845	251.232720	208.000587	-378.236952	-205.391018	953.214822	-263.967171	1.378407	82.499697	-461.183348	-15.295559	81.386700	-62.728669	
